<svg width="512" height="512" viewBox="0 0 512 512" fill="none" xmlns="http://www.w3.org/2000/svg">
  <rect width="512" height="512" rx="96" fill="#FFF8EF"/>
  <path d="M116 210L144 114H368L396 210H116Z" fill="#A95832"/>
  <path d="M148 210H364V386C364 398.15 354.15 408 342 408H170C157.85 408 148 398.15 148 386V210Z" fill="#173C35"/>
  <path d="M194 278C194 265.85 203.85 256 216 256H296C308.15 256 318 265.85 318 278V408H194V278Z" fill="#DCA64F"/>
  <path d="M112 210H400V232C400 251.882 383.882 268 364 268C345.978 268 331.048 254.755 328.403 237.474C325.625 254.593 310.771 267.667 292.875 267.667C275.042 267.667 260.23 254.684 257.376 237.655C254.535 254.684 239.719 267.667 221.875 267.667C203.979 267.667 189.125 254.593 186.347 237.474C183.702 254.755 168.772 268 150.75 268C129.353 268 112 250.647 112 229.25V210Z" fill="#E9C58C"/>
  <path d="M144 114H368L350 78C346.27 70.54 338.646 65.833 330.305 65.833H181.695C173.354 65.833 165.73 70.54 162 78L144 114Z" fill="#447B69"/>
  <path d="M215 321H297" stroke="#743722" stroke-width="14" stroke-linecap="round"/>
  <path d="M215 353H297" stroke="#743722" stroke-width="14" stroke-linecap="round"/>
  <circle cx="256" cy="160" r="32" fill="#FFF8EF"/>
  <path d="M242 160L253 171L273 149" stroke="#A95832" stroke-width="10" stroke-linecap="round" stroke-linejoin="round"/>
</svg>
